<?xml version="1.0" encoding="iso-8859-1"?>
<!-- Generator: Adobe Illustrator 19.0.0, SVG Export Plug-In . SVG Version: 6.00 Build 0)  -->
<svg version="1.1" id="Layer_1" xmlns="http://www.w3.org/2000/svg" xmlns:xlink="http://www.w3.org/1999/xlink" x="0px" y="0px"
	 viewBox="0 0 511.999 511.999" style="enable-background:new 0 0 511.999 511.999;" xml:space="preserve">
<g>
	<g>
		<path d="M509.273,298.297l-32.658-116.62c-6.306-22.534-21.891-41.531-42.76-52.122c-20.87-10.592-45.406-11.956-67.32-3.739
			c-16.022,6.013-29.628,16.583-39.338,30.558c0,0-0.046,0.037-0.14,0.037H185.45c-0.085,0-0.13-0.03-0.134-0.03
			c-9.707-13.981-23.309-24.551-39.341-30.567c-21.915-8.211-46.453-6.85-67.321,3.742c-20.864,10.59-36.448,29.587-42.754,52.119
			L3.242,298.296c-10.789,38.513,6.053,75.722,40.048,88.478c8.556,3.208,17.548,4.722,26.513,4.722
			c29.164-0.001,58.001-16.026,70.304-41.855l15.67-32.794c9.656,12.936,25.042,20.962,41.742,20.962
			c22.775,0,42.735-14.858,49.559-36.094h18.302c6.823,21.236,26.777,36.094,49.548,36.094c16.709,0,32.102-8.035,41.756-20.98
			l15.708,32.8c7.92,16.626,21.687,29.581,38.764,36.476c17.078,6.896,35.982,7.134,53.232,0.668
			c17.246-6.47,31.332-19.08,39.663-35.506C512.38,334.845,514.235,316.034,509.273,298.297z M485.259,341.736
			c-5.94,11.709-15.98,20.698-28.27,25.309c-12.294,4.607-25.77,4.438-37.944-0.477c-12.173-4.916-21.986-14.149-27.641-26.02
			l-21.904-45.739c-2.412-5.037-7.578-8.087-13.16-7.805c-5.561,0.295-10.355,3.873-12.212,9.115
			c-4.37,12.334-16.105,20.621-29.199,20.621c-14.772,0-27.553-10.5-30.388-24.968c-1.264-6.447-6.942-11.127-13.501-11.127h-29.617
			c-6.56,0-12.238,4.68-13.503,11.129c-2.835,14.466-15.621,24.966-30.4,24.966c-13.091,0-24.824-8.284-29.197-20.614
			c-1.859-5.243-6.655-8.82-12.218-9.113c-5.575-0.299-10.749,2.775-13.157,7.816l-21.856,45.738
			c-11.385,23.899-44.281,36.271-70.401,26.478c-23.884-8.961-35.05-34.895-27.159-63.067l32.659-116.624
			c4.79-17.115,16.154-30.969,32.001-39.012c8.977-4.556,18.61-6.851,28.3-6.851c7.418,0,14.871,1.344,22.086,4.049
			c12,4.504,22.178,12.407,29.432,22.856c3.95,5.687,10.47,9.082,17.44,9.082h141.606c6.969,0,13.487-3.392,17.435-9.075
			c7.265-10.455,17.448-18.361,29.443-22.863c16.64-6.238,34.534-5.244,50.386,2.8c15.849,8.043,27.215,21.898,32.005,39.014
			l32.657,116.62C492.521,316.618,491.197,330.028,485.259,341.736z"/>
	</g>
</g>
<g>
	<g>
		<circle cx="396.962" cy="187.214" r="13.31"/>
	</g>
</g>
<g>
	<g>
		<circle cx="396.962" cy="250.064" r="13.311"/>
	</g>
</g>
<g>
	<g>
		<circle cx="365.537" cy="218.639" r="13.311"/>
	</g>
</g>
<g>
	<g>
		<circle cx="428.388" cy="218.639" r="13.311"/>
	</g>
</g>
<g>
	<g>
		<path d="M147.177,208.102h-18.653v-18.653c0-5.818-4.716-10.535-10.535-10.535c-5.818,0-10.535,4.716-10.535,10.535v18.653H88.801
			c-5.818,0-10.535,4.716-10.535,10.535c0,5.818,4.716,10.535,10.535,10.535h18.653v18.653c0,5.818,4.716,10.535,10.535,10.535
			c5.818,0,10.535-4.716,10.535-10.535v-18.653h18.653c5.818,0,10.535-4.716,10.535-10.535
			C157.711,212.818,152.995,208.102,147.177,208.102z"/>
	</g>
</g>
<g>
	<g>
		<path d="M232.033,208.102h-11.524c-5.818,0-10.535,4.716-10.535,10.535c0,5.818,4.716,10.535,10.535,10.535h11.524
			c5.818,0,10.535-4.716,10.535-10.535C242.567,212.818,237.851,208.102,232.033,208.102z"/>
	</g>
</g>
<g>
	<g>
		<path d="M291.993,208.102h-11.524c-5.818,0-10.535,4.716-10.535,10.535c0,5.818,4.716,10.535,10.535,10.535h11.524
			c5.818,0,10.535-4.716,10.535-10.535C302.528,212.818,297.811,208.102,291.993,208.102z"/>
	</g>
</g>
<g>
	<g>
		<path d="M197.52,264.538c-11.696,0-21.211,9.515-21.211,21.211c0,11.697,9.515,21.212,21.211,21.212
			c11.697,0,21.212-9.515,21.212-21.212C218.731,274.053,209.216,264.538,197.52,264.538z M197.52,291.159
			c-2.982,0-5.409-2.426-5.409-5.41c0-2.982,2.426-5.409,5.409-5.409c2.983,0,5.41,2.426,5.41,5.409
			C202.929,288.732,200.503,291.159,197.52,291.159z"/>
	</g>
</g>
<g>
	<g>
		<path d="M314.927,264.538c-11.696,0-21.211,9.515-21.211,21.211c0,11.697,9.515,21.212,21.211,21.212
			c11.696,0,21.211-9.515,21.211-21.212C336.138,274.053,326.623,264.538,314.927,264.538z M314.927,291.159
			c-2.982,0-5.409-2.426-5.409-5.41c0-2.982,2.426-5.409,5.409-5.409s5.409,2.426,5.409,5.409
			C320.336,288.732,317.91,291.159,314.927,291.159z"/>
	</g>
</g>
<g>
</g>
<g>
</g>
<g>
</g>
<g>
</g>
<g>
</g>
<g>
</g>
<g>
</g>
<g>
</g>
<g>
</g>
<g>
</g>
<g>
</g>
<g>
</g>
<g>
</g>
<g>
</g>
<g>
</g>
</svg>
